<!-- icon666.com - MILLIONS vector ICONS FREE --><svg fill="none" viewBox="0 0 24 24" xmlns="http://www.w3.org/2000/svg" xmlns:xlink="http://www.w3.org/1999/xlink"><linearGradient id="paint0_linear_8356_22751" gradientUnits="userSpaceOnUse" x1="12" x2="12" y1=".064" y2="23.991"><stop offset="0" stop-color="#fffcd9"></stop><stop offset=".7781" stop-color="#ffeba8"></stop><stop offset="1" stop-color="#ffe699"></stop></linearGradient><linearGradient id="paint1_linear_8356_22751" gradientUnits="userSpaceOnUse" x1="12" x2="12" y1="3" y2="21"><stop offset="0" stop-color="#fd6700"></stop><stop offset="1" stop-color="#ffce00"></stop></linearGradient><clipPath id="clip0_8356_22751"><path d="m0 0h24v24h-24z" fill="#000000" style="fill: rgb(42, 50, 42);"></path></clipPath><g clip-path="url(#clip0_8356_22751)"><path d="m22 0h-20c-1.10457 0-2 .89543-2 2v20c0 1.1046.89543 2 2 2h20c1.1046 0 2-.8954 2-2v-20c0-1.10457-.8954-2-2-2z" fill="url(#paint0_linear_8356_22751)" style="fill: rgb(0, 184, 61);"></path><path clip-rule="evenodd" d="m11.2929 3.29289c.3905-.39052 1.0237-.39052 1.4142 0l4 4c.3905.39053.3905 1.02369 0 1.41422-.3905.39052-1.0237.39052-1.4142 0l-2.2929-2.2929v9.58579c0 .5523-.4477 1-1 1s-1-.4477-1-1v-9.58579l-2.29289 2.2929c-.39053.39052-1.02369.39052-1.41422 0-.39052-.39053-.39052-1.02369 0-1.41422zm-8.2929 16.70711c0-.5523.44772-1 1-1h16c.5523 0 1 .4477 1 1s-.4477 1-1 1h-16c-.55228 0-1-.4477-1-1z" fill="url(#paint1_linear_8356_22751)" fill-rule="evenodd" style="fill: rgb(252, 252, 252);"></path></g></svg>