{
  "accessors": [
    {
      "bufferView": 2,
      "componentType": 5126,
      "count": 15204,
      "max": [
        0.9935705065727234,
        0.9935705065727234,
        1.369167685508728
      ],
      "min": [
        -0.9935705065727234,
        -0.9935705661773682,
        -1.1314712762832642
      ],
      "type": "VEC3"
    },
    {
      "bufferView": 2,
      "byteOffset": 182448,
      "componentType": 5126,
      "count": 15204,
      "max": [
        1.0,
        1.0,
        1.0
      ],
      "min": [
        -1.0,
        -1.0,
        -1.0
      ],
      "type": "VEC3"
    },
    {
      "bufferView": 1,
      "componentType": 5126,
      "count": 15204,
      "max": [
        1.0001169443130493,
        1.000000238418579
      ],
      "min": [
        -0.00011700940376613289,
        0.013956735841929913
      ],
      "type": "VEC2"
    },
    {
      "bufferView": 0,
      "componentType": 5125,
      "count": 76032,
      "type": "SCALAR"
    },
    {
      "bufferView": 2,
      "byteOffset": 364896,
      "componentType": 5126,
      "count": 65532,
      "max": [
        2.2099623680114746,
        0.7023005485534668,
        2.2098488807678223
      ],
      "min": [
        -2.20973539352417,
        -0.04904887080192566,
        -2.2098488807678223
      ],
      "type": "VEC3"
    },
    {
      "bufferView": 2,
      "byteOffset": 1151280,
      "componentType": 5126,
      "count": 65532,
      "max": [
        1.0,
        1.0,
        1.0
      ],
      "min": [
        -1.0,
        -0.5141599774360657,
        -1.0
      ],
      "type": "VEC3"
    },
    {
      "bufferView": 1,
      "byteOffset": 121632,
      "componentType": 5126,
      "count": 65532,
      "max": [
        4.0,
        1.0
      ],
      "min": [
        0.0,
        0.0
      ],
      "type": "VEC2"
    },
    {
      "bufferView": 1,
      "byteOffset": 645888,
      "componentType": 5126,
      "count": 65532,
      "max": [
        4.0,
        1.0
      ],
      "min": [
        0.0,
        0.0
      ],
      "type": "VEC2"
    },
    {
      "bufferView": 1,
      "byteOffset": 1170144,
      "componentType": 5126,
      "count": 65532,
      "max": [
        4.0,
        1.0
      ],
      "min": [
        0.0,
        0.0
      ],
      "type": "VEC2"
    },
    {
      "bufferView": 0,
      "byteOffset": 304128,
      "componentType": 5125,
      "count": 196410,
      "type": "SCALAR"
    },
    {
      "bufferView": 2,
      "byteOffset": 1937664,
      "componentType": 5126,
      "count": 65532,
      "max": [
        2.1999683380126953,
        0.6212131977081299,
        2.1999683380126953
      ],
      "min": [
        -2.1999683380126953,
        -0.030000030994415283,
        -2.1999683380126953
      ],
      "type": "VEC3"
    },
    {
      "bufferView": 2,
      "byteOffset": 2724048,
      "componentType": 5126,
      "count": 65532,
      "max": [
        0.9987948536872864,
        0.9986891746520996,
        0.9987947344779968
      ],
      "min": [
        -0.9987948536872864,
        -0.6715434193611145,
        -0.9987947344779968
      ],
      "type": "VEC3"
    },
    {
      "bufferView": 1,
      "byteOffset": 1694400,
      "componentType": 5126,
      "count": 65532,
      "max": [
        3.9975924491882324,
        0.8535533547401428
      ],
      "min": [
        0.021529853343963623,
        2.9802322387695313e-08
      ],
      "type": "VEC2"
    },
    {
      "bufferView": 1,
      "byteOffset": 2218656,
      "componentType": 5126,
      "count": 65532,
      "max": [
        3.9975924491882324,
        0.8535533547401428
      ],
      "min": [
        0.021529853343963623,
        2.9802322387695313e-08
      ],
      "type": "VEC2"
    },
    {
      "bufferView": 1,
      "byteOffset": 2742912,
      "componentType": 5126,
      "count": 65532,
      "max": [
        3.9975924491882324,
        0.8535533547401428
      ],
      "min": [
        0.021529853343963623,
        2.9802322387695313e-08
      ],
      "type": "VEC2"
    },
    {
      "bufferView": 0,
      "byteOffset": 1089768,
      "componentType": 5125,
      "count": 196428,
      "type": "SCALAR"
    },
    {
      "bufferView": 2,
      "byteOffset": 3510432,
      "componentType": 5126,
      "count": 65532,
      "max": [
        2.1976847648620605,
        0.6299999952316284,
        2.1976847648620605
      ],
      "min": [
        -2.1976847648620605,
        -0.023190338164567947,
        -2.1976847648620605
      ],
      "type": "VEC3"
    },
    {
      "bufferView": 2,
      "byteOffset": 4296816,
      "componentType": 5126,
      "count": 65532,
      "max": [
        0.9987936019897461,
        0.7409831285476685,
        0.998796820640564
      ],
      "min": [
        -0.9987937211990356,
        -0.9986891150474548,
        -0.9987967610359192
      ],
      "type": "VEC3"
    },
    {
      "bufferView": 1,
      "byteOffset": 3267168,
      "componentType": 5126,
      "count": 65532,
      "max": [
        3.961939811706543,
        1.0
      ],
      "min": [
        2.9802322387695313e-08,
        0.11349478363990784
      ],
      "type": "VEC2"
    },
    {
      "bufferView": 1,
      "byteOffset": 3791424,
      "componentType": 5126,
      "count": 65532,
      "max": [
        3.961939811706543,
        1.0
      ],
      "min": [
        2.9802322387695313e-08,
        0.11349478363990784
      ],
      "type": "VEC2"
    },
    {
      "bufferView": 1,
      "byteOffset": 4315680,
      "componentType": 5126,
      "count": 65532,
      "max": [
        3.961939811706543,
        1.0
      ],
      "min": [
        2.9802322387695313e-08,
        0.11349478363990784
      ],
      "type": "VEC2"
    },
    {
      "bufferView": 0,
      "byteOffset": 1875480,
      "componentType": 5125,
      "count": 196416,
      "type": "SCALAR"
    },
    {
      "bufferView": 2,
      "byteOffset": 5083200,
      "componentType": 5126,
      "count": 65532,
      "max": [
        2.184110164642334,
        0.6299999952316284,
        2.184110164642334
      ],
      "min": [
        -2.184110164642334,
        -0.019031817093491554,
        -2.184110164642334
      ],
      "type": "VEC3"
    },
    {
      "bufferView": 2,
      "byteOffset": 5869584,
      "componentType": 5126,
      "count": 65532,
      "max": [
        0.9987937211990356,
        0.9986889362335205,
        0.9987967610359192
      ],
      "min": [
        -0.9987936019897461,
        -0.9986891150474548,
        -0.998796820640564
      ],
      "type": "VEC3"
    },
    {
      "bufferView": 1,
      "byteOffset": 4839936,
      "componentType": 5126,
      "count": 65532,
      "max": [
        3.7356982231140137,
        1.0
      ],
      "min": [
        2.9802322387695313e-08,
        0.18280339241027832
      ],
      "type": "VEC2"
    },
    {
      "bufferView": 1,
      "byteOffset": 5364192,
      "componentType": 5126,
      "count": 65532,
      "max": [
        3.7356982231140137,
        1.0
      ],
      "min": [
        2.9802322387695313e-08,
        0.18280339241027832
      ],
      "type": "VEC2"
    },
    {
      "bufferView": 1,
      "byteOffset": 5888448,
      "componentType": 5126,
      "count": 65532,
      "max": [
        3.7356982231140137,
        1.0
      ],
      "min": [
        2.9802322387695313e-08,
        0.18280339241027832
      ],
      "type": "VEC2"
    },
    {
      "bufferView": 0,
      "byteOffset": 2661144,
      "componentType": 5125,
      "count": 196428,
      "type": "SCALAR"
    },
    {
      "bufferView": 2,
      "byteOffset": 6655968,
      "componentType": 5126,
      "count": 45788,
      "max": [
        2.1949124336242676,
        0.5833328366279602,
        2.1949124336242676
      ],
      "min": [
        -2.1949124336242676,
        -0.030000030994415283,
        -2.1949124336242676
      ],
      "type": "VEC3"
    },
    {
      "bufferView": 2,
      "byteOffset": 7205424,
      "componentType": 5126,
      "count": 45788,
      "max": [
        0.8032276630401611,
        -0.595606803894043,
        0.8032079935073853
      ],
      "min": [
        -0.8032081723213196,
        -0.9986891746520996,
        -0.8032143115997314
      ],
      "type": "VEC3"
    },
    {
      "bufferView": 1,
      "byteOffset": 6412704,
      "componentType": 5126,
      "count": 45788,
      "max": [
        3.9157347679138184,
        0.222214937210083
      ],
      "min": [
        0.11349478363990784,
        2.9802322387695313e-08
      ],
      "type": "VEC2"
    },
    {
      "bufferView": 1,
      "byteOffset": 6779008,
      "componentType": 5126,
      "count": 45788,
      "max": [
        3.9157347679138184,
        0.222214937210083
      ],
      "min": [
        0.11349478363990784,
        2.9802322387695313e-08
      ],
      "type": "VEC2"
    },
    {
      "bufferView": 1,
      "byteOffset": 7145312,
      "componentType": 5126,
      "count": 45788,
      "max": [
        3.9157347679138184,
        0.222214937210083
      ],
      "min": [
        0.11349478363990784,
        2.9802322387695313e-08
      ],
      "type": "VEC2"
    },
    {
      "bufferView": 0,
      "byteOffset": 3446856,
      "componentType": 5125,
      "count": 137244,
      "type": "SCALAR"
    }
  ],
  "asset": {
    "extras": {
      "author": "DevelopRstore (https://sketchfab.com/developrstore)",
      "license": "CC-BY-4.0 (http://creativecommons.org/licenses/by/4.0/)",
      "source": "https://sketchfab.com/3d-models/glass-jar-with-wooden-cover-379a8c05a676498e9147cd75c4e7fbfb",
      "title": "Glass Jar With Wooden Cover"
    },
    "generator": "Sketchfab-15.4.0",
    "version": "2.0"
  },
  "bufferViews": [
    {
      "buffer": 0,
      "byteLength": 3995832,
      "name": "floatBufferViews",
      "target": 34963
    },
    {
      "buffer": 0,
      "byteLength": 7511616,
      "byteOffset": 3995832,
      "byteStride": 8,
      "name": "floatBufferViews",
      "target": 34962
    },
    {
      "buffer": 0,
      "byteLength": 7754880,
      "byteOffset": 11507448,
      "byteStride": 12,
      "name": "floatBufferViews",
      "target": 34962
    }
  ],
  "buffers": [
    {
      "byteLength": 19262328,
      "uri": "scene.bin"
    }
  ],
  "extensionsUsed": [
    "KHR_materials_transmission",
    "KHR_materials_specular"
  ],
  "images": [
    {
      "uri": "textures/material_baseColor.png"
    },
    {
      "uri": "textures/material_metallicRoughness.png"
    }
  ],
  "materials": [
    {
      "alphaMode": "BLEND",
      "doubleSided": true,
      "extensions": {
        "KHR_materials_specular": {
          "specularColorFactor": [
            1.0,
            1.0,
            1.0
          ],
          "specularFactor": 0.43123940949153367
        },
        "KHR_materials_transmission": {
          "transmissionFactor": 0.9222854774414551
        }
      },
      "name": "GlassJar",
      "pbrMetallicRoughness": {
        "baseColorFactor": [
          1.0,
          1.0,
          1.0,
          0.25
        ],
        "metallicFactor": 0.0,
        "roughnessFactor": 0.0
      }
    },
    {
      "doubleSided": true,
      "name": "material",
      "pbrMetallicRoughness": {
        "baseColorTexture": {
          "index": 0
        },
        "metallicFactor": 0.0,
        "metallicRoughnessTexture": {
          "index": 1
        }
      }
    }
  ],
  "meshes": [
    {
      "name": "Body_GlassJar_0",
      "primitives": [
        {
          "attributes": {
            "NORMAL": 1,
            "POSITION": 0,
            "TEXCOORD_0": 2
          },
          "indices": 3,
          "material": 0,
          "mode": 4
        }
      ]
    },
    {
      "name": "Cap_Cap_0",
      "primitives": [
        {
          "attributes": {
            "NORMAL": 5,
            "POSITION": 4,
            "TEXCOORD_0": 6,
            "TEXCOORD_1": 7,
            "TEXCOORD_2": 8
          },
          "indices": 9,
          "material": 1,
          "mode": 4
        }
      ]
    },
    {
      "name": "Cap_Cap_0",
      "primitives": [
        {
          "attributes": {
            "NORMAL": 11,
            "POSITION": 10,
            "TEXCOORD_0": 12,
            "TEXCOORD_1": 13,
            "TEXCOORD_2": 14
          },
          "indices": 15,
          "material": 1,
          "mode": 4
        }
      ]
    },
    {
      "name": "Cap_Cap_0",
      "primitives": [
        {
          "attributes": {
            "NORMAL": 17,
            "POSITION": 16,
            "TEXCOORD_0": 18,
            "TEXCOORD_1": 19,
            "TEXCOORD_2": 20
          },
          "indices": 21,
          "material": 1,
          "mode": 4
        }
      ]
    },
    {
      "name": "Cap_Cap_0",
      "primitives": [
        {
          "attributes": {
            "NORMAL": 23,
            "POSITION": 22,
            "TEXCOORD_0": 24,
            "TEXCOORD_1": 25,
            "TEXCOORD_2": 26
          },
          "indices": 27,
          "material": 1,
          "mode": 4
        }
      ]
    },
    {
      "name": "Cap_Cap_0",
      "primitives": [
        {
          "attributes": {
            "NORMAL": 29,
            "POSITION": 28,
            "TEXCOORD_0": 30,
            "TEXCOORD_1": 31,
            "TEXCOORD_2": 32
          },
          "indices": 33,
          "material": 1,
          "mode": 4
        }
      ]
    }
  ],
  "nodes": [
    {
      "children": [
        1
      ],
      "matrix": [
        1.0,
        0.0,
        0.0,
        0.0,
        0.0,
        2.220446049250313e-16,
        -1.0,
        0.0,
        0.0,
        1.0,
        2.220446049250313e-16,
        0.0,
        0.0,
        0.0,
        0.0,
        1.0
      ],
      "name": "Sketchfab_model"
    },
    {
      "children": [
        2
      ],
      "matrix": [
        0.009999999776482582,
        0.0,
        0.0,
        0.0,
        0.0,
        0.0,
        0.009999999776482582,
        0.0,
        0.0,
        -0.009999999776482582,
        0.0,
        0.0,
        0.0,
        0.0,
        0.0,
        1.0
      ],
      "name": "GlassJArWithWoodenCover.fbx"
    },
    {
      "children": [
        3,
        5
      ],
      "name": "RootNode"
    },
    {
      "children": [
        4
      ],
      "matrix": [
        100.0,
        0.0,
        0.0,
        0.0,
        0.0,
        -1.629206793918314e-05,
        -99.99999999999868,
        0.0,
        0.0,
        99.99999999999868,
        -1.629206793918314e-05,
        0.0,
        0.0,
        3.1552791595458984,
        0.0,
        1.0
      ],
      "name": "Body"
    },
    {
      "mesh": 0,
      "name": "Body_GlassJar_0"
    },
    {
      "children": [
        6,
        7,
        8,
        9,
        10
      ],
      "matrix": [
        38.759037017822266,
        0.0,
        0.0,
        0.0,
        0.0,
        38.75903701782175,
        6.314648858672597e-06,
        0.0,
        0.0,
        -6.314648858672597e-06,
        38.75903701782175,
        0.0,
        -0.0043957955203950405,
        123.96388244628906,
        0.0,
        1.0
      ],
      "name": "Cap"
    },
    {
      "mesh": 1,
      "name": "Cap_Cap_0"
    },
    {
      "mesh": 2,
      "name": "Cap_Cap_0"
    },
    {
      "mesh": 3,
      "name": "Cap_Cap_0"
    },
    {
      "mesh": 4,
      "name": "Cap_Cap_0"
    },
    {
      "mesh": 5,
      "name": "Cap_Cap_0"
    }
  ],
  "samplers": [
    {
      "magFilter": 9729,
      "minFilter": 9987,
      "wrapS": 10497,
      "wrapT": 10497
    }
  ],
  "scene": 0,
  "scenes": [
    {
      "name": "Sketchfab_Scene",
      "nodes": [
        0
      ]
    }
  ],
  "textures": [
    {
      "sampler": 0,
      "source": 0
    },
    {
      "sampler": 0,
      "source": 1
    }
  ]
}
