{
  "accessors": [
    {
      "bufferView": 2,
      "componentType": 5126,
      "count": 1482,
      "max": [
        134.23939514160156,
        74.96060180664063,
        66.30049896240234
      ],
      "min": [
        -134.32980346679688,
        -133.739501953125,
        -4.616399765014648
      ],
      "type": "VEC3"
    },
    {
      "bufferView": 2,
      "byteOffset": 17784,
      "componentType": 5126,
      "count": 1482,
      "max": [
        0.999549925327301,
        0.9999843835830688,
        0.9999998807907104
      ],
      "min": [
        -0.9994387626647949,
        -0.9960675835609436,
        -0.9999994039535522
      ],
      "type": "VEC3"
    },
    {
      "bufferView": 3,
      "componentType": 5126,
      "count": 1482,
      "max": [
        0.9999829530715942,
        0.9998849034309387,
        0.9664587378501892,
        1.0
      ],
      "min": [
        -1.0,
        -0.9768320918083191,
        -1.0,
        -1.0
      ],
      "type": "VEC4"
    },
    {
      "bufferView": 1,
      "componentType": 5126,
      "count": 1482,
      "max": [
        0.9900000095367432,
        0.9900000095367432
      ],
      "min": [
        0.009999999776482582,
        0.16120000183582306
      ],
      "type": "VEC2"
    },
    {
      "bufferView": 0,
      "componentType": 5125,
      "count": 7290,
      "type": "SCALAR"
    },
    {
      "bufferView": 2,
      "byteOffset": 35568,
      "componentType": 5126,
      "count": 503,
      "max": [
        98.77850341796875,
        200.53770446777344,
        47.407901763916016
      ],
      "min": [
        -97.91310119628906,
        -62.7508544921875,
        12.842399597167969
      ],
      "type": "VEC3"
    },
    {
      "bufferView": 2,
      "byteOffset": 41604,
      "componentType": 5126,
      "count": 503,
      "max": [
        0.9998575448989868,
        0.9946756958961487,
        0.9999258518218994
      ],
      "min": [
        -0.99335116147995,
        -0.9997237324714661,
        -0.9998361468315125
      ],
      "type": "VEC3"
    },
    {
      "bufferView": 3,
      "byteOffset": 23712,
      "componentType": 5126,
      "count": 503,
      "max": [
        0.9999856948852539,
        0.9980731010437012,
        0.998765766620636,
        1.0
      ],
      "min": [
        -0.7353522181510925,
        -0.9999633431434631,
        -0.9996413588523865,
        1.0
      ],
      "type": "VEC4"
    },
    {
      "bufferView": 1,
      "byteOffset": 11856,
      "componentType": 5126,
      "count": 503,
      "max": [
        0.6197999715805054,
        0.9900000095367432
      ],
      "min": [
        0.009999999776482582,
        0.18960000574588776
      ],
      "type": "VEC2"
    },
    {
      "bufferView": 0,
      "byteOffset": 29160,
      "componentType": 5125,
      "count": 2430,
      "type": "SCALAR"
    },
    {
      "bufferView": 2,
      "byteOffset": 47640,
      "componentType": 5126,
      "count": 803,
      "max": [
        56.88180160522461,
        21.173200607299805,
        171.91929626464844
      ],
      "min": [
        -56.555198669433594,
        -21.167800903320313,
        -94.65840148925781
      ],
      "type": "VEC3"
    },
    {
      "bufferView": 2,
      "byteOffset": 57276,
      "componentType": 5126,
      "count": 803,
      "max": [
        0.998759388923645,
        0.999954104423523,
        0.9998766183853149
      ],
      "min": [
        -0.9999992847442627,
        -0.9998948574066162,
        -0.9996671080589294
      ],
      "type": "VEC3"
    },
    {
      "bufferView": 3,
      "byteOffset": 31760,
      "componentType": 5126,
      "count": 803,
      "max": [
        0.9999536275863647,
        0.9999404549598694,
        0.999262809753418,
        1.0
      ],
      "min": [
        -0.9998448491096497,
        -0.9999880790710449,
        -0.9998381733894348,
        1.0
      ],
      "type": "VEC4"
    },
    {
      "bufferView": 1,
      "byteOffset": 15880,
      "componentType": 5126,
      "count": 803,
      "max": [
        0.9901999831199646,
        0.9900000095367432
      ],
      "min": [
        0.004999999888241291,
        0.005499999970197678
      ],
      "type": "VEC2"
    },
    {
      "bufferView": 0,
      "byteOffset": 38880,
      "componentType": 5125,
      "count": 3528,
      "type": "SCALAR"
    },
    {
      "bufferView": 2,
      "byteOffset": 66912,
      "componentType": 5126,
      "count": 803,
      "max": [
        56.88180160522461,
        21.173200607299805,
        171.91929626464844
      ],
      "min": [
        -56.555198669433594,
        -21.167800903320313,
        -94.65840148925781
      ],
      "type": "VEC3"
    },
    {
      "bufferView": 2,
      "byteOffset": 76548,
      "componentType": 5126,
      "count": 803,
      "max": [
        0.998759388923645,
        0.999954104423523,
        0.9998766183853149
      ],
      "min": [
        -0.9999992847442627,
        -0.9998948574066162,
        -0.9996671080589294
      ],
      "type": "VEC3"
    },
    {
      "bufferView": 3,
      "byteOffset": 44608,
      "componentType": 5126,
      "count": 803,
      "max": [
        0.9999536275863647,
        0.9999404549598694,
        0.999262809753418,
        1.0
      ],
      "min": [
        -0.9998448491096497,
        -0.9999880790710449,
        -0.9998381733894348,
        1.0
      ],
      "type": "VEC4"
    },
    {
      "bufferView": 1,
      "byteOffset": 22304,
      "componentType": 5126,
      "count": 803,
      "max": [
        0.9901999831199646,
        0.9900000095367432
      ],
      "min": [
        0.004999999888241291,
        0.005499999970197678
      ],
      "type": "VEC2"
    },
    {
      "bufferView": 0,
      "byteOffset": 52992,
      "componentType": 5125,
      "count": 3528,
      "type": "SCALAR"
    },
    {
      "bufferView": 2,
      "byteOffset": 86184,
      "componentType": 5126,
      "count": 503,
      "max": [
        98.77850341796875,
        200.53770446777344,
        47.407901763916016
      ],
      "min": [
        -97.91310119628906,
        -62.7508544921875,
        12.842399597167969
      ],
      "type": "VEC3"
    },
    {
      "bufferView": 2,
      "byteOffset": 92220,
      "componentType": 5126,
      "count": 503,
      "max": [
        0.9998575448989868,
        0.9946756958961487,
        0.9999258518218994
      ],
      "min": [
        -0.99335116147995,
        -0.9997237324714661,
        -0.9998361468315125
      ],
      "type": "VEC3"
    },
    {
      "bufferView": 3,
      "byteOffset": 57456,
      "componentType": 5126,
      "count": 503,
      "max": [
        0.9999856948852539,
        0.9980731010437012,
        0.998765766620636,
        1.0
      ],
      "min": [
        -0.7353522181510925,
        -0.9999633431434631,
        -0.9996413588523865,
        1.0
      ],
      "type": "VEC4"
    },
    {
      "bufferView": 1,
      "byteOffset": 28728,
      "componentType": 5126,
      "count": 503,
      "max": [
        0.6197999715805054,
        0.9900000095367432
      ],
      "min": [
        0.009999999776482582,
        0.18960000574588776
      ],
      "type": "VEC2"
    },
    {
      "bufferView": 0,
      "byteOffset": 67104,
      "componentType": 5125,
      "count": 2430,
      "type": "SCALAR"
    },
    {
      "bufferView": 2,
      "byteOffset": 98256,
      "componentType": 5126,
      "count": 1482,
      "max": [
        134.23939514160156,
        74.96060180664063,
        66.30049896240234
      ],
      "min": [
        -134.32980346679688,
        -133.739501953125,
        -4.616399765014648
      ],
      "type": "VEC3"
    },
    {
      "bufferView": 2,
      "byteOffset": 116040,
      "componentType": 5126,
      "count": 1482,
      "max": [
        0.999549925327301,
        0.9999843835830688,
        0.9999998807907104
      ],
      "min": [
        -0.9994387626647949,
        -0.9960675835609436,
        -0.9999994039535522
      ],
      "type": "VEC3"
    },
    {
      "bufferView": 3,
      "byteOffset": 65504,
      "componentType": 5126,
      "count": 1482,
      "max": [
        0.9999829530715942,
        0.9998849034309387,
        0.9664587378501892,
        1.0
      ],
      "min": [
        -1.0,
        -0.9768320918083191,
        -1.0,
        -1.0
      ],
      "type": "VEC4"
    },
    {
      "bufferView": 1,
      "byteOffset": 32752,
      "componentType": 5126,
      "count": 1482,
      "max": [
        0.9900000095367432,
        0.9900000095367432
      ],
      "min": [
        0.009999999776482582,
        0.16120000183582306
      ],
      "type": "VEC2"
    },
    {
      "bufferView": 0,
      "byteOffset": 76824,
      "componentType": 5125,
      "count": 7290,
      "type": "SCALAR"
    }
  ],
  "asset": {
    "extras": {
      "author": "shedmon (https://sketchfab.com/shedmon)",
      "license": "CC-BY-4.0 (http://creativecommons.org/licenses/by/4.0/)",
      "source": "https://sketchfab.com/3d-models/iron-lock-230fdd8b48d24afa92789106d828e0bf",
      "title": "Iron Lock"
    },
    "generator": "Sketchfab-12.65.0",
    "version": "2.0"
  },
  "bufferViews": [
    {
      "buffer": 0,
      "byteLength": 105984,
      "name": "floatBufferViews",
      "target": 34963
    },
    {
      "buffer": 0,
      "byteLength": 44608,
      "byteOffset": 105984,
      "byteStride": 8,
      "name": "floatBufferViews",
      "target": 34962
    },
    {
      "buffer": 0,
      "byteLength": 133824,
      "byteOffset": 150592,
      "byteStride": 12,
      "name": "floatBufferViews",
      "target": 34962
    },
    {
      "buffer": 0,
      "byteLength": 89216,
      "byteOffset": 284416,
      "byteStride": 16,
      "name": "floatBufferViews",
      "target": 34962
    }
  ],
  "buffers": [
    {
      "byteLength": 373632,
      "uri": "scene.bin"
    }
  ],
  "images": [
    {
      "uri": "textures/Default_baseColor.png"
    },
    {
      "uri": "textures/Default_metallicRoughness.png"
    },
    {
      "uri": "textures/Default_normal.png"
    },
    {
      "uri": "textures/Default_0_baseColor.png"
    },
    {
      "uri": "textures/Default_0_metallicRoughness.png"
    },
    {
      "uri": "textures/Default_0_normal.png"
    }
  ],
  "materials": [
    {
      "doubleSided": true,
      "name": "Default",
      "normalTexture": {
        "index": 2
      },
      "occlusionTexture": {
        "index": 1
      },
      "pbrMetallicRoughness": {
        "baseColorTexture": {
          "index": 0
        },
        "metallicRoughnessTexture": {
          "index": 1
        }
      }
    },
    {
      "doubleSided": true,
      "name": "Default_0",
      "normalTexture": {
        "index": 5
      },
      "occlusionTexture": {
        "index": 4
      },
      "pbrMetallicRoughness": {
        "baseColorTexture": {
          "index": 3
        },
        "metallicRoughnessTexture": {
          "index": 4
        }
      }
    }
  ],
  "meshes": [
    {
      "name": "zamok_Default_0",
      "primitives": [
        {
          "attributes": {
            "NORMAL": 1,
            "POSITION": 0,
            "TANGENT": 2,
            "TEXCOORD_0": 3
          },
          "indices": 4,
          "material": 0,
          "mode": 4
        }
      ]
    },
    {
      "name": "lock_Default_0",
      "primitives": [
        {
          "attributes": {
            "NORMAL": 6,
            "POSITION": 5,
            "TANGENT": 7,
            "TEXCOORD_0": 8
          },
          "indices": 9,
          "material": 0,
          "mode": 4
        }
      ]
    },
    {
      "name": "RetopoGroup1_Default_0",
      "primitives": [
        {
          "attributes": {
            "NORMAL": 11,
            "POSITION": 10,
            "TANGENT": 12,
            "TEXCOORD_0": 13
          },
          "indices": 14,
          "material": 1,
          "mode": 4
        }
      ]
    },
    {
      "name": "RetopoGroup002_Default_0",
      "primitives": [
        {
          "attributes": {
            "NORMAL": 16,
            "POSITION": 15,
            "TANGENT": 17,
            "TEXCOORD_0": 18
          },
          "indices": 19,
          "material": 1,
          "mode": 4
        }
      ]
    },
    {
      "name": "lock001_Default_0",
      "primitives": [
        {
          "attributes": {
            "NORMAL": 21,
            "POSITION": 20,
            "TANGENT": 22,
            "TEXCOORD_0": 23
          },
          "indices": 24,
          "material": 0,
          "mode": 4
        }
      ]
    },
    {
      "name": "zamok001_Default_0",
      "primitives": [
        {
          "attributes": {
            "NORMAL": 26,
            "POSITION": 25,
            "TANGENT": 27,
            "TEXCOORD_0": 28
          },
          "indices": 29,
          "material": 0,
          "mode": 4
        }
      ]
    }
  ],
  "nodes": [
    {
      "children": [
        1
      ],
      "matrix": [
        1.0,
        0.0,
        0.0,
        0.0,
        0.0,
        2.220446049250313e-16,
        -1.0,
        0.0,
        0.0,
        1.0,
        2.220446049250313e-16,
        0.0,
        0.0,
        0.0,
        0.0,
        1.0
      ],
      "name": "Sketchfab_model"
    },
    {
      "children": [
        2
      ],
      "matrix": [
        1.0,
        0.0,
        0.0,
        0.0,
        0.0,
        0.0,
        1.0,
        0.0,
        0.0,
        -1.0,
        0.0,
        0.0,
        0.0,
        0.0,
        0.0,
        1.0
      ],
      "name": "3c390715100946b5a5642111d99d84a3.fbx"
    },
    {
      "children": [
        3,
        5,
        7,
        9,
        11,
        13
      ],
      "name": "RootNode"
    },
    {
      "children": [
        4
      ],
      "matrix": [
        1.0,
        0.0,
        0.0,
        0.0,
        0.0,
        2.220446049250313e-16,
        -1.0,
        0.0,
        0.0,
        1.0,
        2.220446049250313e-16,
        0.0,
        0.0,
        0.0,
        0.0,
        1.0
      ],
      "name": "zamok"
    },
    {
      "mesh": 0,
      "name": "zamok_Default_0"
    },
    {
      "children": [
        6
      ],
      "matrix": [
        1.0,
        0.0,
        0.0,
        0.0,
        0.0,
        2.220446049250313e-16,
        -1.0,
        0.0,
        0.0,
        1.0,
        2.220446049250313e-16,
        0.0,
        0.0,
        0.0,
        -76.71891021728516,
        1.0
      ],
      "name": "lock"
    },
    {
      "mesh": 1,
      "name": "lock_Default_0"
    },
    {
      "children": [
        8
      ],
      "matrix": [
        0.5781006813049316,
        0.0,
        0.0,
        0.0,
        0.0,
        -8.729077875459042e-08,
        0.5781006813049251,
        0.0,
        0.0,
        -0.5781006813049251,
        -8.729077875459042e-08,
        0.0,
        0.0,
        125.70161437988281,
        79.00109100341797,
        1.0
      ],
      "name": "RetopoGroup1"
    },
    {
      "mesh": 2,
      "name": "RetopoGroup1_Default_0"
    },
    {
      "children": [
        10
      ],
      "matrix": [
        0.5239371569398279,
        1.4960044308459822e-17,
        -0.2443158883557029,
        0.0,
        -4.757005857061162e-08,
        -0.5781006813049209,
        -1.0201432833262554e-07,
        0.0,
        -0.24431588835569826,
        1.1256035562118727e-07,
        -0.5239371569398181,
        0.0,
        351.45953369140625,
        11.499710083007813,
        260.2212219238281,
        1.0
      ],
      "name": "RetopoGroup002"
    },
    {
      "mesh": 3,
      "name": "RetopoGroup002_Default_0"
    },
    {
      "children": [
        12
      ],
      "matrix": [
        0.9063078005819204,
        0.0,
        0.42261823269277204,
        0.0,
        0.42261823269277204,
        1.1102230246251565e-16,
        -0.9063078005819204,
        0.0,
        0.0,
        0.9999999999999999,
        1.1102230246251565e-16,
        0.0,
        342.8463134765625,
        0.0,
        -0.6523151397705078,
        1.0
      ],
      "name": "lock001"
    },
    {
      "mesh": 4,
      "name": "lock001_Default_0"
    },
    {
      "children": [
        14
      ],
      "matrix": [
        0.9063078005819204,
        0.0,
        0.42261823269277204,
        0.0,
        0.42261823269277204,
        1.1102230246251565e-16,
        -0.9063078005819204,
        0.0,
        0.0,
        0.9999999999999999,
        1.1102230246251565e-16,
        0.0,
        343.4139404296875,
        0.0,
        -1.8695716857910156,
        1.0
      ],
      "name": "zamok001"
    },
    {
      "mesh": 5,
      "name": "zamok001_Default_0"
    }
  ],
  "samplers": [
    {
      "magFilter": 9729,
      "minFilter": 9987,
      "wrapS": 10497,
      "wrapT": 10497
    }
  ],
  "scene": 0,
  "scenes": [
    {
      "name": "Sketchfab_Scene",
      "nodes": [
        0
      ]
    }
  ],
  "textures": [
    {
      "sampler": 0,
      "source": 0
    },
    {
      "sampler": 0,
      "source": 1
    },
    {
      "sampler": 0,
      "source": 2
    },
    {
      "sampler": 0,
      "source": 3
    },
    {
      "sampler": 0,
      "source": 4
    },
    {
      "sampler": 0,
      "source": 5
    }
  ]
}
