{
  "accessors": [
    {
      "bufferView": 2,
      "componentType": 5126,
      "count": 378,
      "max": [
        0.5999616980552673,
        0.8386279940605164,
        0.817203938961029
      ],
      "min": [
        -0.5999590158462524,
        -0.8829523324966431,
        -0.8608499765396118
      ],
      "type": "VEC3"
    },
    {
      "bufferView": 2,
      "byteOffset": 4536,
      "componentType": 5126,
      "count": 378,
      "max": [
        1.0,
        0.9848077893257141,
        0.995912492275238
      ],
      "min": [
        -1.0,
        -0.9848078489303589,
        -0.9959121346473694
      ],
      "type": "VEC3"
    },
    {
      "bufferView": 1,
      "componentType": 5126,
      "count": 378,
      "max": [
        0.9733673334121704,
        0.9968340992927551
      ],
      "min": [
        0.3724570572376251,
        0.03218221664428711
      ],
      "type": "VEC2"
    },
    {
      "bufferView": 0,
      "componentType": 5125,
      "count": 912,
      "type": "SCALAR"
    },
    {
      "bufferView": 2,
      "byteOffset": 9072,
      "componentType": 5126,
      "count": 2314,
      "max": [
        0.5414202809333801,
        0.15200437605381012,
        0.007652733940631151
      ],
      "min": [
        -0.541421115398407,
        -0.8374385833740234,
        -0.8256635665893555
      ],
      "type": "VEC3"
    },
    {
      "bufferView": 2,
      "byteOffset": 36840,
      "componentType": 5126,
      "count": 2314,
      "max": [
        0.9996882081031799,
        0.9639904499053955,
        0.9941142797470093
      ],
      "min": [
        -0.9996882677078247,
        -0.9937087893486023,
        -0.9995980262756348
      ],
      "type": "VEC3"
    },
    {
      "bufferView": 1,
      "byteOffset": 3024,
      "componentType": 5126,
      "count": 2314,
      "max": [
        0.7232702970504761,
        0.3030487895011902
      ],
      "min": [
        0.0031659305095672607,
        0.27531325817108154
      ],
      "type": "VEC2"
    },
    {
      "bufferView": 0,
      "byteOffset": 3648,
      "componentType": 5125,
      "count": 6516,
      "type": "SCALAR"
    },
    {
      "bufferView": 2,
      "byteOffset": 64608,
      "componentType": 5126,
      "count": 96,
      "max": [
        0.5212109684944153,
        0.8025293946266174,
        0.791869044303894
      ],
      "min": [
        -0.5225915312767029,
        -0.14494380354881287,
        -0.008013506419956684
      ],
      "type": "VEC3"
    },
    {
      "bufferView": 2,
      "byteOffset": 65760,
      "componentType": 5126,
      "count": 96,
      "max": [
        1.0,
        0.766045868396759,
        0.7660447955131531
      ],
      "min": [
        -1.0,
        -0.7660455107688904,
        -0.7660447955131531
      ],
      "type": "VEC3"
    },
    {
      "bufferView": 3,
      "componentType": 5126,
      "count": 96,
      "max": [
        0.011987646110355854,
        0.7660447955131531,
        0.784888744354248,
        -1.0
      ],
      "min": [
        -1.0,
        -0.6504179835319519,
        -0.7848896980285645,
        -1.0
      ],
      "type": "VEC4"
    },
    {
      "bufferView": 1,
      "byteOffset": 21536,
      "componentType": 5126,
      "count": 96,
      "max": [
        0.7168780565261841,
        0.3030487895011902
      ],
      "min": [
        0.003165900707244873,
        0.28305524587631226
      ],
      "type": "VEC2"
    },
    {
      "bufferView": 1,
      "byteOffset": 22304,
      "componentType": 5126,
      "count": 96,
      "max": [
        0.7168780565261841,
        0.3030487895011902
      ],
      "min": [
        0.003165900707244873,
        0.28305524587631226
      ],
      "type": "VEC2"
    },
    {
      "bufferView": 0,
      "byteOffset": 29712,
      "componentType": 5125,
      "count": 144,
      "type": "SCALAR"
    },
    {
      "bufferView": 2,
      "byteOffset": 66912,
      "componentType": 5126,
      "count": 8,
      "max": [
        0.7643288969993591,
        1.4604116678237915,
        1.3491930961608887
      ],
      "min": [
        -0.7644103169441223,
        -0.7760545611381531,
        -0.5326067805290222
      ],
      "type": "VEC3"
    },
    {
      "bufferView": 2,
      "byteOffset": 67008,
      "componentType": 5126,
      "count": 8,
      "max": [
        0.0,
        0.6427876353263855,
        0.766044557094574
      ],
      "min": [
        0.0,
        -0.6427876353263855,
        -0.766044557094574
      ],
      "type": "VEC3"
    },
    {
      "bufferView": 1,
      "byteOffset": 23072,
      "componentType": 5126,
      "count": 8,
      "max": [
        0.7355897426605225,
        0.9968340396881104
      ],
      "min": [
        0.003165900707244873,
        0.30780553817749023
      ],
      "type": "VEC2"
    },
    {
      "bufferView": 1,
      "byteOffset": 23136,
      "componentType": 5126,
      "count": 8,
      "max": [
        0.7355897426605225,
        0.9968340396881104
      ],
      "min": [
        0.003165900707244873,
        0.30780553817749023
      ],
      "type": "VEC2"
    },
    {
      "bufferView": 0,
      "byteOffset": 30288,
      "componentType": 5125,
      "count": 12,
      "type": "SCALAR"
    },
    {
      "bufferView": 2,
      "byteOffset": 67104,
      "componentType": 5126,
      "count": 16,
      "max": [
        0.7643288969993591,
        1.4604116678237915,
        1.3491930961608887
      ],
      "min": [
        -0.7644103169441223,
        -0.7760545611381531,
        -0.5326067805290222
      ],
      "type": "VEC3"
    },
    {
      "bufferView": 2,
      "byteOffset": 67296,
      "componentType": 5126,
      "count": 16,
      "max": [
        1.0,
        0.7660461664199829,
        0.642784059047699
      ],
      "min": [
        -1.0,
        -0.7660474181175232,
        -0.6427855491638184
      ],
      "type": "VEC3"
    },
    {
      "bufferView": 1,
      "byteOffset": 23200,
      "componentType": 5126,
      "count": 16,
      "max": [
        0.9968340992927551,
        0.9968340396881104
      ],
      "min": [
        0.9512765407562256,
        0.03551638126373291
      ],
      "type": "VEC2"
    },
    {
      "bufferView": 0,
      "byteOffset": 30336,
      "componentType": 5125,
      "count": 24,
      "type": "SCALAR"
    }
  ],
  "asset": {
    "extras": {
      "author": "s7ntech (https://sketchfab.com/s7ntech)",
      "license": "CC-BY-4.0 (http://creativecommons.org/licenses/by/4.0/)",
      "source": "https://sketchfab.com/3d-models/glass-waiting-room-table-b06a2ec3498d494b91c812e180d7ead0",
      "title": "Glass waiting room table"
    },
    "generator": "Sketchfab-15.40.0",
    "version": "2.0"
  },
  "bufferViews": [
    {
      "buffer": 0,
      "byteLength": 30432,
      "name": "floatBufferViews",
      "target": 34963
    },
    {
      "buffer": 0,
      "byteLength": 23328,
      "byteOffset": 30432,
      "byteStride": 8,
      "name": "floatBufferViews",
      "target": 34962
    },
    {
      "buffer": 0,
      "byteLength": 67488,
      "byteOffset": 53760,
      "byteStride": 12,
      "name": "floatBufferViews",
      "target": 34962
    },
    {
      "buffer": 0,
      "byteLength": 1536,
      "byteOffset": 121248,
      "byteStride": 16,
      "name": "floatBufferViews",
      "target": 34962
    }
  ],
  "buffers": [
    {
      "byteLength": 122784,
      "uri": "scene.bin"
    }
  ],
  "extensionsUsed": [
    "KHR_materials_specular",
    "KHR_materials_clearcoat"
  ],
  "images": [
    {
      "uri": "textures/glassBase_baseColor.png"
    },
    {
      "uri": "textures/glass_metallicRoughness.png"
    }
  ],
  "materials": [
    {
      "doubleSided": true,
      "name": "material",
      "pbrMetallicRoughness": {
        "baseColorFactor": [
          0.0,
          0.0,
          0.0,
          1.0
        ],
        "roughnessFactor": 0.2
      }
    },
    {
      "doubleSided": true,
      "extensions": {
        "KHR_materials_specular": {
          "specularColorFactor": [
            1.0,
            1.0,
            1.0
          ],
          "specularFactor": 1.0
        }
      },
      "name": "legbase",
      "pbrMetallicRoughness": {
        "baseColorFactor": [
          0.0,
          0.0,
          0.0,
          1.0
        ],
        "roughnessFactor": 0.562694
      }
    },
    {
      "doubleSided": true,
      "extensions": {
        "KHR_materials_clearcoat": {
          "clearcoatFactor": 0.4,
          "clearcoatRoughnessFactor": 0.03
        },
        "KHR_materials_specular": {
          "specularColorFactor": [
            1.0,
            1.0,
            1.0
          ],
          "specularFactor": 1.0
        }
      },
      "name": "glassBase",
      "normalTexture": {
        "index": 0
      },
      "pbrMetallicRoughness": {
        "baseColorTexture": {
          "index": 0
        },
        "metallicFactor": 0.0,
        "roughnessFactor": 0.0
      }
    },
    {
      "alphaMode": "BLEND",
      "extensions": {
        "KHR_materials_clearcoat": {
          "clearcoatFactor": 1.0,
          "clearcoatRoughnessFactor": 0.03
        }
      },
      "name": "glass",
      "pbrMetallicRoughness": {
        "baseColorFactor": [
          0.885023,
          0.898116,
          0.724919,
          0.6
        ],
        "metallicRoughnessTexture": {
          "index": 1
        }
      }
    },
    {
      "doubleSided": true,
      "name": "glassEdge",
      "pbrMetallicRoughness": {
        "baseColorFactor": [
          0.0789778,
          0.0800104,
          0.0660391,
          1.0
        ],
        "roughnessFactor": 0.5
      }
    }
  ],
  "meshes": [
    {
      "name": "Object_0",
      "primitives": [
        {
          "attributes": {
            "NORMAL": 1,
            "POSITION": 0,
            "TEXCOORD_0": 2
          },
          "indices": 3,
          "material": 0,
          "mode": 4
        }
      ]
    },
    {
      "name": "Object_1",
      "primitives": [
        {
          "attributes": {
            "NORMAL": 5,
            "POSITION": 4,
            "TEXCOORD_0": 6
          },
          "indices": 7,
          "material": 1,
          "mode": 4
        }
      ]
    },
    {
      "name": "Object_2",
      "primitives": [
        {
          "attributes": {
            "NORMAL": 9,
            "POSITION": 8,
            "TANGENT": 10,
            "TEXCOORD_0": 11,
            "TEXCOORD_1": 12
          },
          "indices": 13,
          "material": 2,
          "mode": 4
        }
      ]
    },
    {
      "name": "Object_3",
      "primitives": [
        {
          "attributes": {
            "NORMAL": 15,
            "POSITION": 14,
            "TEXCOORD_0": 16,
            "TEXCOORD_1": 17
          },
          "indices": 18,
          "material": 3,
          "mode": 4
        }
      ]
    },
    {
      "name": "Object_4",
      "primitives": [
        {
          "attributes": {
            "NORMAL": 20,
            "POSITION": 19,
            "TEXCOORD_0": 21
          },
          "indices": 22,
          "material": 4,
          "mode": 4
        }
      ]
    }
  ],
  "nodes": [
    {
      "children": [
        1
      ],
      "matrix": [
        1.0,
        0.0,
        0.0,
        0.0,
        0.0,
        2.220446049250313e-16,
        -1.0,
        0.0,
        0.0,
        1.0,
        2.220446049250313e-16,
        0.0,
        0.0,
        0.0,
        0.0,
        1.0
      ],
      "name": "Sketchfab_model"
    },
    {
      "children": [
        2
      ],
      "name": "root"
    },
    {
      "children": [
        3
      ],
      "matrix": [
        1.0,
        0.0,
        0.0,
        0.0,
        0.0,
        2.220446049250313e-16,
        1.0,
        0.0,
        0.0,
        -1.0,
        2.220446049250313e-16,
        0.0,
        0.0,
        0.0,
        0.0,
        1.0
      ],
      "name": "GLTF_SceneRootNode"
    },
    {
      "children": [
        4,
        5,
        6,
        7,
        8
      ],
      "matrix": [
        -3.233961507476124e-07,
        1.0429821784008197e-07,
        0.9999999999999424,
        0.0,
        0.7660445019834334,
        0.6427875395345812,
        1.8069424828626168e-07,
        0.0,
        -0.6427875395345254,
        0.7660445019834476,
        -2.8777209237773604e-07,
        0.0,
        2.1532425307668746e-05,
        0.5477002859115601,
        0.00019889549002982676,
        1.0
      ],
      "name": "legs_0"
    },
    {
      "mesh": 0,
      "name": "Object_4"
    },
    {
      "mesh": 1,
      "name": "Object_5"
    },
    {
      "mesh": 2,
      "name": "Object_6"
    },
    {
      "mesh": 3,
      "name": "Object_7"
    },
    {
      "mesh": 4,
      "name": "Object_8"
    }
  ],
  "samplers": [
    {
      "magFilter": 9729,
      "minFilter": 9987,
      "wrapS": 10497,
      "wrapT": 10497
    }
  ],
  "scene": 0,
  "scenes": [
    {
      "name": "Sketchfab_Scene",
      "nodes": [
        0
      ]
    }
  ],
  "textures": [
    {
      "sampler": 0,
      "source": 0
    },
    {
      "sampler": 0,
      "source": 1
    }
  ]
}
