{
  "accessors": [
    {
      "bufferView": 2,
      "componentType": 5126,
      "count": 12592,
      "max": [
        0.3282551169395447,
        1.0720751285552979,
        -6.731690406799316
      ],
      "min": [
        -1.3639476299285889,
        -1.0685410499572754,
        -8.697782516479492
      ],
      "type": "VEC3"
    },
    {
      "bufferView": 2,
      "byteOffset": 151104,
      "componentType": 5126,
      "count": 12592,
      "max": [
        0.9994251728057861,
        0.9998845458030701,
        0.9920828938484192
      ],
      "min": [
        -0.9996463656425476,
        -0.9968903064727783,
        -0.9999345541000366
      ],
      "type": "VEC3"
    },
    {
      "bufferView": 1,
      "componentType": 5126,
      "count": 12592,
      "max": [
        0.9999879598617554,
        0.8704979419708252
      ],
      "min": [
        5.125999450683594e-06,
        7.033586371107958e-06
      ],
      "type": "VEC2"
    },
    {
      "bufferView": 0,
      "componentType": 5125,
      "count": 72657,
      "type": "SCALAR"
    },
    {
      "bufferView": 2,
      "byteOffset": 302208,
      "componentType": 5126,
      "count": 14198,
      "max": [
        0.5256975293159485,
        1.0218998193740845,
        -6.653786659240723
      ],
      "min": [
        -1.4941411018371582,
        -1.0685410499572754,
        -8.440733909606934
      ],
      "type": "VEC3"
    },
    {
      "bufferView": 2,
      "byteOffset": 472584,
      "componentType": 5126,
      "count": 14198,
      "max": [
        0.9999343752861023,
        0.9998845458030701,
        0.9996726512908936
      ],
      "min": [
        -0.9999457001686096,
        -0.9997813105583191,
        -0.9998064041137695
      ],
      "type": "VEC3"
    },
    {
      "bufferView": 1,
      "byteOffset": 100736,
      "componentType": 5126,
      "count": 14198,
      "max": [
        0.9999591708183289,
        0.941603422164917
      ],
      "min": [
        4.842891212319955e-05,
        5.823373794555664e-05
      ],
      "type": "VEC2"
    },
    {
      "bufferView": 0,
      "byteOffset": 290628,
      "componentType": 5125,
      "count": 82608,
      "type": "SCALAR"
    },
    {
      "bufferView": 2,
      "byteOffset": 642960,
      "componentType": 5126,
      "count": 12229,
      "max": [
        0.5822266340255737,
        1.057808756828308,
        -6.61334228515625
      ],
      "min": [
        -0.8376208543777466,
        -1.0685410499572754,
        -8.666959762573242
      ],
      "type": "VEC3"
    },
    {
      "bufferView": 2,
      "byteOffset": 789708,
      "componentType": 5126,
      "count": 12229,
      "max": [
        0.9998775720596313,
        0.9999688267707825,
        0.9999849200248718
      ],
      "min": [
        -0.998554527759552,
        -0.999922513961792,
        -0.9990171790122986
      ],
      "type": "VEC3"
    },
    {
      "bufferView": 1,
      "byteOffset": 214320,
      "componentType": 5126,
      "count": 12229,
      "max": [
        0.9701642394065857,
        0.9999855756759644
      ],
      "min": [
        5.5909156799316406e-05,
        5.318202238413505e-05
      ],
      "type": "VEC2"
    },
    {
      "bufferView": 0,
      "byteOffset": 621060,
      "componentType": 5125,
      "count": 71331,
      "type": "SCALAR"
    },
    {
      "bufferView": 2,
      "byteOffset": 936456,
      "componentType": 5126,
      "count": 12633,
      "max": [
        0.5577278137207031,
        1.0855095386505127,
        -6.61334228515625
      ],
      "min": [
        -1.2120426893234253,
        -0.8543094396591187,
        -8.596013069152832
      ],
      "type": "VEC3"
    },
    {
      "bufferView": 2,
      "byteOffset": 1088052,
      "componentType": 5126,
      "count": 12633,
      "max": [
        0.9996790885925293,
        0.9999889135360718,
        0.9999790191650391
      ],
      "min": [
        -0.9999006986618042,
        -0.9625104069709778,
        -0.9987698197364807
      ],
      "type": "VEC3"
    },
    {
      "bufferView": 1,
      "byteOffset": 312152,
      "componentType": 5126,
      "count": 12633,
      "max": [
        0.9999583959579468,
        0.9548487663269043
      ],
      "min": [
        4.2549636418698356e-06,
        1.901388168334961e-05
      ],
      "type": "VEC2"
    },
    {
      "bufferView": 0,
      "byteOffset": 906384,
      "componentType": 5125,
      "count": 73404,
      "type": "SCALAR"
    }
  ],
  "asset": {
    "extras": {
      "author": "matousekfoto (https://sketchfab.com/matousekfoto)",
      "license": "CC-BY-4.0 (http://creativecommons.org/licenses/by/4.0/)",
      "source": "https://sketchfab.com/3d-models/toy-paper-globe-4ac8d8da60324fcfb7229f7604f02022",
      "title": "Toy paper Globe"
    },
    "generator": "Sketchfab-12.67.0",
    "version": "2.0"
  },
  "bufferViews": [
    {
      "buffer": 0,
      "byteLength": 1200000,
      "name": "floatBufferViews",
      "target": 34963
    },
    {
      "buffer": 0,
      "byteLength": 413216,
      "byteOffset": 1200000,
      "byteStride": 8,
      "name": "floatBufferViews",
      "target": 34962
    },
    {
      "buffer": 0,
      "byteLength": 1239648,
      "byteOffset": 1613216,
      "byteStride": 12,
      "name": "floatBufferViews",
      "target": 34962
    }
  ],
  "buffers": [
    {
      "byteLength": 2852864,
      "uri": "scene.bin"
    }
  ],
  "extensionsUsed": [
    "KHR_materials_unlit"
  ],
  "images": [
    {
      "uri": "textures/material3_baseColor.jpeg"
    },
    {
      "uri": "textures/material1_baseColor.jpeg"
    },
    {
      "uri": "textures/material0_baseColor.jpeg"
    },
    {
      "uri": "textures/material2_baseColor.jpeg"
    }
  ],
  "materials": [
    {
      "doubleSided": true,
      "extensions": {
        "KHR_materials_unlit": {}
      },
      "name": "material3",
      "pbrMetallicRoughness": {
        "baseColorTexture": {
          "index": 0
        },
        "metallicFactor": 0.0
      }
    },
    {
      "doubleSided": true,
      "extensions": {
        "KHR_materials_unlit": {}
      },
      "name": "material1",
      "pbrMetallicRoughness": {
        "baseColorTexture": {
          "index": 1
        },
        "metallicFactor": 0.0
      }
    },
    {
      "doubleSided": true,
      "extensions": {
        "KHR_materials_unlit": {}
      },
      "name": "material0",
      "pbrMetallicRoughness": {
        "baseColorTexture": {
          "index": 2
        },
        "metallicFactor": 0.0
      }
    },
    {
      "doubleSided": true,
      "extensions": {
        "KHR_materials_unlit": {}
      },
      "name": "material2",
      "pbrMetallicRoughness": {
        "baseColorTexture": {
          "index": 3
        },
        "metallicFactor": 0.0
      }
    }
  ],
  "meshes": [
    {
      "name": "Model_material3_0",
      "primitives": [
        {
          "attributes": {
            "NORMAL": 1,
            "POSITION": 0,
            "TEXCOORD_0": 2
          },
          "indices": 3,
          "material": 0,
          "mode": 4
        }
      ]
    },
    {
      "name": "Model_material1_0",
      "primitives": [
        {
          "attributes": {
            "NORMAL": 5,
            "POSITION": 4,
            "TEXCOORD_0": 6
          },
          "indices": 7,
          "material": 1,
          "mode": 4
        }
      ]
    },
    {
      "name": "Model_material0_0",
      "primitives": [
        {
          "attributes": {
            "NORMAL": 9,
            "POSITION": 8,
            "TEXCOORD_0": 10
          },
          "indices": 11,
          "material": 2,
          "mode": 4
        }
      ]
    },
    {
      "name": "Model_material2_0",
      "primitives": [
        {
          "attributes": {
            "NORMAL": 13,
            "POSITION": 12,
            "TEXCOORD_0": 14
          },
          "indices": 15,
          "material": 3,
          "mode": 4
        }
      ]
    }
  ],
  "nodes": [
    {
      "children": [
        1
      ],
      "matrix": [
        0.1428571492433548,
        0.0,
        0.0,
        0.0,
        0.0,
        3.172065926445695e-17,
        -0.1428571492433548,
        0.0,
        0.0,
        0.1428571492433548,
        3.172065926445695e-17,
        0.0,
        0.0,
        0.0,
        0.0,
        1.0
      ],
      "name": "Sketchfab_model"
    },
    {
      "children": [
        2
      ],
      "matrix": [
        1.0,
        0.0,
        0.0,
        0.0,
        0.0,
        -1.0,
        0.0,
        0.0,
        0.0,
        0.0,
        -1.0,
        0.0,
        0.0,
        0.0,
        0.0,
        1.0
      ],
      "name": "paper-globe.fbx"
    },
    {
      "children": [
        3
      ],
      "name": "RootNode"
    },
    {
      "children": [
        4,
        5,
        6,
        7
      ],
      "name": "Model"
    },
    {
      "mesh": 0,
      "name": "Model_material3_0"
    },
    {
      "mesh": 1,
      "name": "Model_material1_0"
    },
    {
      "mesh": 2,
      "name": "Model_material0_0"
    },
    {
      "mesh": 3,
      "name": "Model_material2_0"
    }
  ],
  "samplers": [
    {
      "magFilter": 9729,
      "minFilter": 9987,
      "wrapS": 10497,
      "wrapT": 10497
    }
  ],
  "scene": 0,
  "scenes": [
    {
      "name": "Sketchfab_Scene",
      "nodes": [
        0
      ]
    }
  ],
  "textures": [
    {
      "sampler": 0,
      "source": 0
    },
    {
      "sampler": 0,
      "source": 1
    },
    {
      "sampler": 0,
      "source": 2
    },
    {
      "sampler": 0,
      "source": 3
    }
  ]
}
